<?xml version="1.0" encoding="UTF-8" standalone="no"?>
<svg xmlns="http://www.w3.org/2000/svg" width="155.9646" height="113.46889" version="1.0">
  <g transform="translate(-435.79351 -167.38916)">
    <g transform="matrix(.16541821 -.00289975 .0030088 .17722771 430.60272 158.66167)">
      <path fill="#deb887" d="M812.38404 694.53582c-6.80174-.99567-28.48207-5.62705-48.17852-10.29195-32.95428-7.80488-37.41931-8.39307-55.95949-7.37145-13.32469.73424-20.91563.34234-22.4152-1.15724-1.24709-1.24709-2.35992-7.41512-2.47291-13.70672-.11299-6.2916-.92468-13.75805-1.80376-16.5921-.87904-2.83406-1.12704 3.21072-.5511 13.43284 1.32306 23.48157-.12966 25.33374-16.33131 20.82189-6.04713-1.68401-15.66875-3.64783-21.38142-4.36405-13.60439-1.70565-52.27467 2.5128-67.93631 7.41102-16.38441 5.12426-24.63535 4.88603-37.45173-1.08129-11.95423-5.56592-15.97265-11.09841-14.13572-19.46182.68517-3.11964.42404-7.89349-.58034-10.60855-1.71431-4.63419-2.01057-4.37411-4.8383 4.2471-4.63097 14.11899-11.09498 16.54859-42.95874 16.14667-18.21533-.22975-31.03735.78692-43.76168 3.46989L413.63 679.22491l-6.63463-4.90518c-5.17088-3.823-10.52216-5.24648-24.25564-6.45214-39.18662-3.44021-88.36299-1.04565-114.05323 5.55361-6.55922 1.68494-12.74111 2.55964-13.73757 1.94379-.99646-.61584-4.29036-7.60623-7.3198-15.53418-3.02945-7.92795-5.81164-14.41445-6.18266-14.41445-.37103 0-2.33024 7.02282-4.3538 15.6063-2.57488 10.92214-4.89732 16.25824-7.73772 17.77836-5.91833 3.1674-48.07199.21242-70.27744-4.92643-26.82841-6.20874-32.10077-5.95226-42.69106 2.0769-15.39538 11.67218-23.831656 14.71666-40.856588 14.74434-11.989519.0195-17.77112-1.06546-25.764132-4.83478-19.410283-9.15346-25.153095-21.45377-22.931311-49.11573.755096-9.4012 2.227479-35.64327 3.271963-58.31571 1.044483-22.67243 3.072008-52.81647 4.505611-66.98674 3.846172-38.01702 3.368014-170.81885-.834884-231.87719-4.52198-65.69387-6.340892-135.50029-3.866824-148.4014 1.608373-8.3869 3.720672-11.88848 11.345231-18.80711 12.517037-11.35813 37.775157-23.403033 75.959144-36.22284 30.02396-10.080177 32.8725-10.644334 61.37174-12.154833 16.4375-.87121 35.77299-2.252067 42.96775-3.068571 9.9658-1.130978 13.48737-.827604 14.78611 1.273779 1.35364 2.190251 2.331 2.238592 4.74551.234718 2.35288-1.952721 9.73216-2.043917 32.6199-.40313 16.26851 1.166265 36.99919 2.139862 46.06816 2.163549 22.40108.05851 32.28858 1.887224 33.41101 6.179447.62025 2.371815 2.42197 3.203519 5.61678 2.592792 2.58699-.494535 13.878.969475 25.09111 3.253356 11.21309 2.283881 27.55783 4.793008 36.32158 5.575838 15.66603 1.39938 15.96704 1.336701 17.89178-3.72568 1.07668-2.831953 4.63618-7.056296 7.90995-9.387429 5.63955-4.015706 8.86918-4.245716 61.46175-4.37718 30.53019-.07632 62.92952-.913938 71.99849-1.861384 28.60625-2.988525 41.66971 4.663653 29.70455 17.400001-4.98665 5.308025-4.04894 9.325768 1.16636 4.99746 2.1154-1.755624 9.38673-2.494347 22.20695-2.256097 12.23413.227357 27.68046-1.24975 43.12408-4.123887 18.89326-3.516134 26.63847-4.090813 36.05432-2.67516 10.94613 1.64573 12.29926 2.432109 15.5154 9.016927 1.9379 3.967676 3.56799 5.734568 3.62244 3.926429.0545-1.808142 1.91875-4.934376 4.14287-6.947185 3.40231-3.079041 6.1788-3.431025 17.50049-2.218576l13.4566 1.44108-1.06735-5.830113c-1.84441-10.074439 1.25615-12.04271 18.52478-11.759726 15.33799.251346 15.79814.422133 47.98551 17.810465 43.90344 23.71761 87.6638 49.77823 96.2599 57.32569 11.97625 10.5153 11.22004 22.73124-2.30285 37.2012l-5.05812 5.41235 6.83926 1.28621c9.4129 1.77021 30.8732 12.23098 34.81357 16.96978 6.62446 7.96672 8.69288 20.10848 7.3933 43.39867-1.91774 34.36835-4.09433 43.87752-14.39034 62.86938-10.5953 19.54395-21.60608 49.87119-30.32556 83.52632-9.59673 37.04112-11.18205 66.44259-8.33836 154.64273 1.3443 41.69478 3.25767 85.54752 4.25194 97.45054 2.94212 35.22194.0452 49.20671-11.02229 53.20875-7.88652 2.8518-77.7315 2.87552-97.14969.033zM450.65562 90.972237c0-1.133622-.9275-2.06113-2.06113-2.06113-1.13362 0-2.06112.927508-2.06112 2.06113s.9275 2.061131 2.06112 2.061131c1.13363 0 2.06113-.927509 2.06113-2.061131z"/>
      <path fill="#b7b8a7" d="M814.44517 694.43369c-5.66811-1.0688-27.66736-6.14561-48.88722-11.28181-34.99039-8.46928-40.45789-9.26919-58.73955-8.59382l-20.15799.74469-1.47744-14.78348c-.81257-8.13089-2.89475-17.86974-4.62703-21.64187-3.03417-6.60704-3.09751-6.25407-1.7283 9.63065 1.82709 21.19646 1.65736 27.60584-.79595 30.05914-1.27741 1.2774-6.72523.7723-15.23279-1.41237-18.32322-4.70525-64.74219-3.00084-85.3772 3.1349-16.83353 5.00537-27.42369 5.41456-36.65781 1.41642-12.92241-5.59508-14.78514-8.19655-15.89961-22.20519-1.17336-14.74898-3.64941-15.65237-8.31104-3.03232-4.78241 12.94712-9.60732 14.41707-48.37801 14.73884-20.00133.166-35.26126 1.22835-38.78037 2.69977-8.63036 3.60856-16.67685 2.95148-22.79559-1.86151-11.9672-9.41341-101.05536-9.83685-136.98917-.65111-7.21113 1.84337-13.77527 2.54341-14.65247 1.56262-.87401-.97722-4.21916-9.11914-7.4337-18.09318-3.21454-8.97404-6.32073-15.00284-6.90262-13.39735-.5819 1.6055-2.95208 10.33915-5.26706 19.40812l-4.20903 16.48905-26.96918-.35705c-19.08659-.2527-32.23701-1.60818-44.99234-4.63754-27.28545-6.4803-33.80983-5.91504-46.37592 4.0179-13.807915 10.91451-18.507705 12.48839-37.416348 12.52994-17.440897.0383-26.072533-2.67666-36.522043-11.48758-10.666721-8.99408-13.394647-17.70524-11.961365-38.19659.673982-9.63578 2.118104-31.89599 3.209158-49.46713 1.091055-17.57114 3.566197-49.57019 5.500316-71.109 5.213214-58.0556 4.745132-167.02135-1.063192-247.50285-2.461029-34.10059-4.682787-79.54852-4.93724-100.99539-.520274-43.85188.1502-46.56969 14.43756-58.52341C63.10663 95.695042 131.16165 69.694891 163.1045 66.152648c43.29844-4.801501 72.03654-6.476701 72.78125-4.242562.96836 2.905091 6.59569 2.974641 6.59569.08152 0-1.445288 4.71393-1.7719 13.91263-.963958 7.65195.672088 29.21652 2.084815 47.92128 3.139394 18.70476 1.054579 37.1088 2.548956 40.89786 3.320836 6.43602 1.311103 6.8012 1.824606 5.5514 7.806347-.73582 3.52161-1.70992 10.112962-2.16469 14.647449l-.82684 8.244522 2.03583-8.458492c1.11973-4.652172 4.095-10.353908 6.6117-12.670526l4.57583-4.212032 22.67244 4.882072c13.21067 2.844666 29.76875 4.906784 39.67676 4.941285 15.60962.05436 17.00434-.276499 17.00434-4.033803 0-2.492262 3.22669-6.228349 8.25045-9.55291 8.23158-5.447402 8.31404-5.456525 36.0397-3.987223 16.30216.863923 45.64538.448299 70.9864-1.005467 23.75843-1.362976 45.54165-1.889707 48.40715-1.170512 2.86551.719195 6.24742 3.246049 7.51536 5.61523 1.93892 3.622907 1.42513 5.22638-3.23249 10.087875-4.17163 4.354246-5.17307 6.929583-4.05926 10.438912l1.47861 4.658639 3.75572-4.979077c3.54661-4.701847 4.76651-4.944024 21.9094-4.349534 12.23586.424323 25.20862-.749922 39.79558-3.602145 22.55913-4.411047 34.09154-5.155092 45.26499-2.9204 6.2947 1.258938 7.86433 3.197855 11.32629 13.990984 1.10113 3.432831 1.7602 3.008776 4.80524-3.091696l3.52908-7.070224 15.82027.367959 15.82027.367959-1.08853-6.707935c-1.74901-10.777824 3.47462-14.409517 18.47132-12.842051 10.54576 1.102248 18.06662 4.550765 56.79726 26.043057 55.25111 30.659779 84.30766 48.814819 89.57105 55.965529 6.02668 8.18772 3.38068 18.19009-7.93645 30.00129-5.04206 5.2622-9.16739 9.84226-9.16739 10.17793 0 .33566 2.70474.0694 6.01052-.59181 13.90301-2.7806 40.93562 11.89304 46.51638 25.24968 4.0054 9.58626 4.01354 35.51996.0182 58.10996-2.25075 12.72614-5.655 22.13211-13.24425 36.59417-10.99077 20.94393-28.63836 72.02852-34.1315 98.80063-1.86076 9.06897-4.14367 28.0829-5.07312 42.25317-1.9125 29.15822.68467 147.21971 4.18657 190.31109 3.19255 39.28482.77611 53.51758-9.94413 58.57043-6.52511 3.07551-78.07722 3.12521-94.30352.0655zm18.2726-15.52396c-1.79772-5.93437-2.44242-12.93098-1.63689-17.76435 1.24694-7.48207 16.58982-52.96704 28.46092-84.37436 12.95072-34.26368 15.951-89.57308 11.53794-212.69898-1.50335-41.94401-2.80353-89.71071-2.88927-106.14823-.14847-28.4604.11454-30.46376 5.5122-41.98697 3.11746-6.65531 5.66811-12.40854 5.66811-12.78495 0-.37641-4.50985-.15026-10.0219.50256-5.76008.6822-13.28548.10987-17.69639-1.34586-8.34648-2.75459-21.74885-13.42238-21.74885-17.3113 0-1.33157-3.21403-9.12761-7.14231-17.32453-9.0516-18.88751-39.73602-51.68113-53.19653-56.85317-5.33504-2.04992-10.02953-5.67494-12.11758-9.357-1.8747-3.305862-5.21139-6.975511-7.41486-8.154776-3.67055-1.964429-4.29177-.961466-7.41238 11.967696-1.87334 7.7615-3.40607 15.92224-3.40607 18.13499 0 5.70788-6.01233 10.36644-14.42791 11.17927l-7.21397.69677.7027-9.19155c.70606-9.23579-1.6196-19.85602-7.1919-32.842134l-3.0013-6.994468-16.98336 1.305444c-9.34084.717993-21.45423 2.828826-26.91864 4.690738-7.46092 2.542194-14.46794 3.126852-28.13519 2.347582-19.51979-1.112969-20.49827-.645078-20.49827 9.801828 0 2.66754-.91875 7.26655-2.04166 10.22002-1.775 4.66865-2.60533 5.06827-6.35788 3.05997-7.29099-3.90201-10.74752-15.55245-9.65679-32.548587.78429-12.220625.37212-15.362459-2.14193-16.327188-1.7122-.657033-17.26378.468296-34.55908 2.50073-30.37012 3.568908-63.49366 3.520477-89.0339-.130182-6.50872-.93034-10.21296-.321835-14.28576 2.346774l-5.49854 3.602793 8.89515 3.314985c9.79744 3.651234 19.74637 14.525534 10.64727 11.637591-4.00268-1.270402-6.359.302012-15.02813 10.028574-5.65465 6.34437-11.62121 11.53521-13.25903 11.53521-3.31121 0-6.99808-8.04374-6.99808-15.267902 0-4.523499-.99138-4.78391-27.30998-7.173653-15.02049-1.363869-30.46777-3.027587-34.32729-3.697151l-7.0173-1.217392 1.35113 9.857554c.86486 6.309774.49824 10.885204-1.01858 12.712894-1.78828 2.15473-1.76142 4.88565.10944 11.13005 2.40704 8.03394 2.19642 8.75351-7.23762 24.72981-5.34424 9.05031-10.72754 16.15384-11.96289 15.78562-4.80163-1.4312-12.20193-20.79171-13.85977-36.25971-4.22654-39.434193-5.15502-45.712883-7.03842-47.59628-2.18991-2.189916-49.81268-8.29986-64.92658-8.330005l-9.378-.0187-2.58123 12.497166c-3.01137 14.579593-6.59765 15.594199-14.0594 3.977611-9.34366-14.546313-10.25338-15.37258-16.37499-14.872806-39.06501 3.189305-85.52647 12.09606-96.30361 18.461598-.95421.563607 3.68334 3.211525 10.30567 5.884261 6.62232 2.672736 14.23982 7.385285 16.92778 10.472335 4.30329 4.94221 4.76635 7.10355 3.87561 18.0897-1.2784 15.76757-12.59346 49.68709-27.0177 80.99187-11.41651 24.77711-25.64122 65.85843-31.412185 90.71919-8.410071 36.22971-11.514339 67.12962-12.622688 125.64637-1.47358 77.79971 1.6523 102.49801 20.030093 158.26251 11.0719 33.59589 14.36799 48.82328 14.40394 66.54397.0288 14.20272.24631 14.9002 4.01722 12.88207 6.10958-3.26974 14.80961-2.58862 35.66425 2.79215 20.12501 5.1925 54.57244 8.70413 58.5285 5.96648 2.84503-1.96881 11.91176-30.19099 14.90511-46.39547 1.19886-6.49009 3.60678-14.55975 5.35094-17.93254 1.74412-3.37277 3.20046-8.72905 3.23628-11.9028l.0651-5.77047 4.84749 5.5038c4.49973 5.10897 9.45015 24.13639 9.45015 36.32264 0 2.41363 2.07863 6.32495 4.61916 8.69181 3.51219 3.27211 4.62357 6.62549 4.63755 13.99293.0173 9.10995.32658 9.65529 5.1712 9.11709 2.83406-.31484 34.16323-1.4415 69.62035-2.50366 65.01837-1.94771 66.87844-1.82233 78.78105 5.3104 5.70668 3.41979 17.95028 2.7419 27.96856-1.54851 3.49012-1.49467 15.01156-2.62054 27.29062-2.66681l21.25052-.0801 8.63587-9.36913c4.74973-5.15304 9.7057-11.18184 11.01328-13.39735 2.24391-3.802 2.71666-3.84205 8.41813-.71319 5.95125 3.26592 6.07315 3.22913 8.22939-2.4834 3.71878-9.85218 9.81096-9.53036 36.93376 1.95113 23.09907 9.77817 45.69182 17.1396 70.42881 22.94797 6.03031 1.41593 12.739 4.47947 14.90822 6.80785 3.82649 4.10726 4.06793 4.12129 8.10127.47117 4.9752-4.50249 5.22418-9.88668 1.00957-21.83219-2.37311-6.72609-2.6267-10.41595-1.03056-14.99462 1.1644-3.34023 2.1171-8.40391 2.1171-11.25262 0-6.1289 8.89073-22.07722 13.2372-23.74513 3.17377-1.21788 4.01547.51299 6.34638 13.05068.73767 3.96768 4.03133 13.82143 7.31928 21.89725 3.28798 8.0758 6.57588 19.76923 7.30646 25.98539l1.32834 11.30211 22.93851 1.20207c17.39546.91158 29.41338 3.01228 49.73319 8.69321 43.48909 12.15853 55.39543 15.19282 60.08634 15.31284 4.33775.11097 4.37026-.10299 1.47-9.67688zM483.37079 103.8543c-2.56378-3.26907-2.49088-3.34197.77821-.77819 3.43332 2.6926 4.52517 4.38517 2.82878 4.38517-.42799 0-2.05114-1.62314-3.60699-3.60698zm410.04144 576.7301c.51528-1.54585-.25764-2.31878-1.80349-1.80349-1.48788.49597-3.11101 2.11909-3.60698 3.60697-.51528 1.54585.25764 2.31878 1.80349 1.80349 1.48789-.49597 3.11101-2.11909 3.60698-3.60697zm-289.20237-15.28065c18.97127-2.19057 21.49478-2.87328 15.45847-4.18203-12.22824-2.65126-45.6883-13.99658-59.44965-20.15761-7.19081-3.21939-13.41883-5.85341-13.84009-5.85341-.42126 0-1.75871 1.85502-2.97209 4.12226-1.58292 2.95773-1.55123 5.34604.1122 8.4542 1.95892 3.66026 1.44139 5.24733-3.33764 10.23558l-5.65606 5.90365 4.95603 1.83526c2.72583 1.00939 6.34729 2.42149 8.04773 3.13803 3.58661 1.51128 24.47324.22307 56.6811-3.49593zM59.622301 649.54632c5.421114-.004 13.073061 1.33624 17.004327 2.97881 7.910129 3.30507 7.81644 3.45308 5.15212-8.13934-1.042174-4.53449-4.452176-26.7947-7.577782-49.46713-5.226172-37.90947-5.64772-45.861-5.245-98.93427.535686-70.59605 3.582896-135.32138 7.665858-162.82931 5.829223-39.27291 16.422579-75.05235 40.276296-136.03462 11.06349-28.28391 13.0315-35.33484 13.82594-49.53502.76055-13.59424.32212-17.05836-2.45019-19.35917-4.7197-3.917-5.6836-2.0179-2.82272 5.56141 2.06246 5.46408 1.80992 8.00283-1.61918 16.27685-5.16661 12.4665-17.2409 21.8695-35.208671 27.41918-17.137322 5.29318-30.563712 5.33529-40.777752.12787l-7.944629-4.0504 1.427212 30.32981c.784966 16.6814 2.742662 46.80123 4.350436 66.93294 7.434289 93.08841 5.749554 196.67553-5.22022 320.96917-2.249481 25.48788-4.089965 50.74884-4.089965 56.13551v9.79393l6.698674-4.08425c4.204601-2.5636 10.368505-4.08714 16.555246-4.09197zm821.684019 2.05343c5.09458 0 13.25645 1.52517 18.13752 3.38926 4.88108 1.86411 9.16993 3.02349 9.53081 2.57641.36089-.44706-.15384-9.62418-1.14384-20.39359-.99003-10.7694-2.00159-63.17365-2.24795-116.45387l-.44795-96.87314 5.61809-25.97344c7.23821-33.46365 15.04651-55.59345 32.65238-92.54157 12.76319-26.78509 19.98002-48.67896 16.98462-51.52664-.59716-.5677-2.60749 1.26466-4.46741 4.07192-7.25837 10.95538-16.06958 19.40795-23.9753 22.99945-9.05609 4.1141-29.79817 5.14877-36.05791 1.79867-8.11188-4.34136-11.30031-27.34654-5.37753-38.79995 6.41554-12.40626 20.07388-16.8166 21.48065-6.93619.83267 5.84826 5.26441 4.81227 6.1827-1.4453 1.41613-9.65011-9.66983-14.50614-24.19026-10.5962-16.89843 4.55028-18.03846 13.96248-13.48718 111.3512 2.59828 55.59772 3.14104 90.56157 2.07972 133.97349-.78984 32.30822-1.24932 60.59724-1.0211 62.86448.22825 2.26724.39906 12.93359.37958 23.703-.0295 16.30816-1.62473 25.96516-9.54481 57.78042-5.23017 21.00982-9.50942 39.38072-9.50942 40.82419 0 1.9501 1.17718 1.80003 4.58089-.58404 2.51946-1.7647 8.74915-3.20856 13.8437-3.20856zm41.05355-373.23249c3.95734-3.68683 4.51924-6.05505 3.99563-16.84074-.33511-6.90284-1.60772-12.87975-2.82803-13.28203-1.22031-.40228-4.69846 1.56672-7.72924 4.37554-4.51311 4.18261-5.51049 6.91543-5.51049 15.09879 0 8.87102 2.52107 14.93856 6.20697 14.93856.69315 0 3.33245-1.93056 5.86516-4.29012zm-50.80348-105.46227c-.84098-15.1604 4.34773-22.88619 20.16782-30.0291 6.73412-3.04052 12.27452-6.21221 12.31199-7.04821.0891-1.98696-9.08299-7.70539-48.61096-30.30703-49.07067-28.058069-69.43202-37.95391-74.67124-36.291047-8.71445 2.765859-4.84571 9.288408 21.85795 36.851627 29.15288 30.09125 44.65462 48.0709 51.96246 60.26845 6.07133 10.1337 12.47246 17.37257 15.36527 17.37624 1.37711.002 1.98965-4.09816 1.61671-10.82093zm29.45434-1.54558c.73379-1.18726-.74088-1.84133-3.48533-1.54584-4.06364.43751-4.75662-.42647-4.75293-5.92572.003-4.31051-.84848-6.11067-2.57643-5.44759-3.5889 1.37719-3.22573 7.85437.65818 11.73828 3.68423 3.68423 8.27919 4.21847 10.15651 1.18087zm-806.675055-9.50952c5.793775-5.24329 4.7825-8.13357-5.20398-14.87336-11.187901-7.55063-13.601833-5.84633-13.601833 9.60323v11.19367l7.469595-1.21214c4.108278-.66669 9.209576-2.78681 11.336218-4.7114zm.8552-21.5404c.74476-1.20505-.10905-3.80779-1.89736-5.78385-2.965014-3.2763-2.948214-3.8961.19068-7.035 4.86454-4.86454 1.43509-7.1225-5.189131-3.41654-7.248887 4.05544-8.203088 10.87367-2.11821 15.13569 5.519017 3.86567 7.179361 4.06823 9.014021 1.0997zM451.80843 89.108895c-1.69041-2.735135-7.3362-3.017081-7.3362-.366362 0 1.040904.59058 3.431597 1.3124 5.312649 1.15936 3.021184 1.66861 3.063915 4.36617.366363 1.67955-1.679551 2.42548-4.070244 1.65763-5.31265z"/>
      <path fill="#64635d" d="M778.37538 684.42309c-45.30178-11.46768-49.77012-12.22628-69.04195-11.72134l-20.60542.53987-1.47635-13.39735c-1.55924-14.14958-6.63255-29.94563-10.35716-32.24756-2.16853-1.34023-1.04289 23.8967 1.6899 37.88737.63259 3.23853-.0806 7.3052-1.65298 9.42499-2.28242 3.07706-3.75445 3.35264-8.4245 1.5771-19.91508-7.57171-63.43074-6.56782-91.09177 2.10146-20.79413 6.51711-37.92251 4.33349-47.13501-6.00906-2.72209-3.05599-3.4507-5.91967-2.48506-9.76708.75143-2.99387.30886-8.64722-.98347-12.563-3.2685-9.90365-8.3329-8.33548-11.7114 3.62642-3.82799 13.55329-7.48271 14.73906-46.92498 15.22466-19.2632.23717-35.39114 1.39718-38.78037 2.78933-8.60926 3.53626-16.6853 2.90205-22.63435-1.77748-11.47716-9.02794-87.83521-10.16657-129.20348-1.92666-10.74939 2.14112-20.21104 3.22624-21.0259 2.4114-3.01859-3.01859-11.98856-29.60441-11.98856-35.53251 0-12.30528-3.88907-5.65348-8.16169 13.95968-2.4078 11.05282-5.15218 21.48729-6.09861 23.18772-2.68715 4.82793-49.55642 3.58517-72.30718-1.91726-26.49714-6.40853-32.65409-5.85887-45.16731 4.03227-13.820745 10.92467-18.853405 12.63642-37.277918 12.67938-16.979542.0395-24.269376-2.07332-34.759736-10.07471-10.747334-8.19738-15.519519-21.07526-13.918252-37.55878 18.835378-193.89255 19.30279-243.05114 4.20374-442.1153-1.811375-23.88096-2.799495-47.76216-2.195822-53.06934 2.897963-25.47736 19.533243-39.3555 69.566533-58.036548 34.380465-12.836717 54.019215-17.565188 86.835315-20.907564 17.30062-1.762096 35.38142-3.753125 40.17956-4.424508 8.01207-1.121094 8.89083-.781599 10.76991 4.160773 2.54092 6.683117 6.27033 7.021837 6.27033.569497 0-4.721275.3205-4.796054 17.00433-3.967426 21.5285 1.069247 25.14189 2.222168 7.62617 2.433285-15.2261.183521-18.44712 2.219233-18.44712 11.658791 0 8.648387-4.40762 12.473522-8.71366 7.56211-1.7358-1.979836-4.74224-6.728782-6.68098-10.553214-3.42852-6.763304-3.7877-6.917263-13.13061-5.628285-5.28311.728877-18.41698 2.270568-29.1864 3.425982-25.56057 2.742308-82.48884 17.01319-79.55823 19.943802.57467.574677 5.44558 1.86701 10.82424 2.871854 20.94476 3.912904 31.63364 12.620651 31.63364 25.770491 0 14.16419-12.44985 50.69977-30.84189 90.50928-9.83554 21.289-23.753625 63.27751-29.007135 87.50966-14.821154 68.3636-17.556372 174.66433-5.958648 231.57534 2.303732 11.3046 8.718368 34.59374 14.254743 51.75364 11.78766 36.53563 15.4144 55.08745 13.80937 70.63876-1.11931 10.84503-.99413 11.21715 3.34719 9.94863 12.21519-3.56928 18.1019-3.29596 36.50091 1.69482 21.49925 5.83172 64.32103 9.63529 66.61887 5.91732.72035-1.16557 4.16612-13.52355 7.65724-27.46217 3.49113-13.93862 7.72954-28.01546 9.41866-31.28188 5.72985-11.08033 10.31405-3.53929 10.82997 17.81538.13412 5.55172 2.2533 15.60513 4.70929 22.34092l4.46544 12.24687 8.41663-1.35864c4.62914-.74726 37.57843-1.82869 73.22063-2.40319 63.93585-1.03053 64.91222-.9837 72.88294 3.49611 9.32536 5.24112 22.2612 4.74089 35.04485-1.35519 6.49975-3.09953 8.98608-3.26088 18.04081-1.17079 12.93502 2.98576 31.78378 3.14522 37.0746.31366 2.28197-1.22126 5.32139-6.85012 7.21365-13.35925 1.79854-6.1868 4.20543-11.82681 5.34861-12.53335 1.14321-.70651 4.37749.87518 7.18736 3.51489 4.317 4.0556 5.40652 4.32866 7.02981 1.76179 1.05655-1.67073 1.93521-4.6282 1.95258-6.57216.0173-1.94396 1.92809-4.54945 4.2461-5.79 3.4753-1.85993 8.4464-.39708 28.34055 8.3398 13.26929 5.82746 32.47356 12.92968 42.67616 15.78274 22.06162 6.16931 28.76942 9.46471 15.45849 7.59446-9.92849-1.39501-47.73806-13.71037-65.27602-21.26178-14.96197-6.44224-18.19679-5.35337-18.21198 6.13034-.01 7.36125-.68899 9.117-3.35791 8.67951-4.01884-.65878-6.49174 6.93702-3.85961 11.85521 2.31333 4.3225 15.27546 8.27917 27.04959 8.25684 4.96979-.009 18.94479-1.32557 31.05555-2.92482 14.81357-1.95616 31.25136-2.52064 50.22934-1.72494l28.20977 1.18278-1.339-24.53737c-.96967-17.76962-.57427-27.37979 1.4336-34.843 3.29037-12.23017 8.04688-13.72806 9.81775-3.0917.66057 3.96768 3.76871 13.5959 6.90695 21.39607 3.13823 7.80014 6.15173 17.53898 6.69667 21.64187 2.35779 17.75249 1.25704 16.73485 18.10128 16.73485 18.95236 0 38.8045 3.74132 76.17255 14.35538 30.07255 8.54186 48.68685 12.67089 50.91481 11.29393.70587-.43624-.37092-5.6799-2.39287-11.65256-2.09498-6.18842-3.18305-13.52887-2.52961-17.06561 1.41122-7.63826 21.01552-65.30667 29.23432-85.99632 3.31487-8.34471 7.60882-25.34098 9.5421-37.7695 3.90072-25.07649 5.5525-29.79547 5.00688-14.30418-.19869 5.64138.61325 14.37014 1.80431 19.39722 2.65326 11.19851.21554 34.35962-5.76298 54.7549-2.32611 7.93535-6.57902 24.85144-9.45092 37.59131-5.6852 25.21989-5.30017 35.30434 1.6118 42.21632 4.40509 4.40509 3.644 6.95199-1.48883 4.98233-1.80053-.69093-4.70817-4.6895-6.46148-8.88574-3.90008-9.33418-2.76096-20.75286 5.43507-54.4832 5.51893-22.71277 9.91136-49.4061 7.76439-47.18515-.54791.56681-7.36716 18.18947-15.15385 39.16148-12.12766 32.66356-14.16442 40.07225-14.20502 51.67031-.0398 11.38134.86073 14.913 5.64997 22.15716l5.69736 8.61775h18.54339c22.97443 0 35.44749-4.82412 39.04534-15.10131 2.00282-5.72108 1.75235-6.97789-1.99914-10.03107-2.35885-1.91977-9.46838-5.42842-15.79893-7.79699-10.57286-3.9558-11.90866-4.04533-16.40454-1.09953-2.69194 1.76384-4.89444 5.09535-4.89444 7.40336 0 2.30801-.9275 3.62316-2.06113 2.92254-1.13363-.70062-2.06113-3.969-2.06113-7.26308 0-10.96888 12.40699-13.2683 32.01242-5.93296 6.35566 2.37795 11.97441 3.90489 12.48611 3.39322.51169-.5117-.0858-14.28304-1.32781-30.60299-1.24195-16.31995-2.42024-68.16424-2.61839-115.20955-.34331-81.50481-.13703-86.70284 4.37613-110.27048 6.40801-33.4626 16.16996-61.70524 34.86574-100.87134 15.60413-32.68937 15.68757-32.95441 16.64696-52.87823 1.2298-25.5391-.28256-33.16674-8.41182-42.42546-16.98832-19.34862-39.29595-19.70816-64.64733-1.04195-7.753 5.70852-8.88812 7.72505-11.96603 21.25756-4.18043 18.37991-4.21157 38.04383-.22388 141.36111 1.71744 44.49719 2.42113 89.78089 1.61748 104.0871l-1.42256 25.32321-1.36669-17.51961c-.75168-9.63578-1.47913-35.14227-1.61657-56.68109-.13744-21.53881-1.14259-58.25247-2.23366-81.58589-1.09107-23.33342-2.19635-58.57876-2.4562-78.32296l-.47243-35.89855 6.49564-13.87019c7.58094-16.18766 6.92749-17.25444-9.99215-16.31232-8.51726.47426-13.74666-.45417-19.71864-3.50085-10.1737-5.19023-11.62216-6.96269-17.11377-20.94175-2.44823-6.23209-7.19228-15.96861-10.54228-21.63672l-6.09095-10.30565 8.00545 8.6815c4.4929 4.87234 9.97566 14.08502 12.49579 20.99668 5.28178 14.48583 13.05523 21.89739 25.10106 23.93252 11.08978 1.87361 15.0103-1.57489 6.68494-5.8801-3.31613-1.71484-9.58941-8.51821-13.94062-15.1186-4.35121-6.60038-11.69611-16.63824-16.32197-22.30635-11.45923-14.04104-59.35502-63.623414-62.81619-65.028171-1.59245-.646315-3.08527-5.066822-3.4748-10.289417-.82885-11.113541 3.12694-16.406042 12.25427-16.395018l6.37922.0077-6.69868 4.084261c-11.91704 7.265969-9.89002 11.601093 19.62815 41.977875 30.52876 31.41675 41.53155 44.24218 53.02331 61.80671 7.9998 12.22728 19.83188 21.39495 28.13682 21.80082 2.97116.1452 14.55889-6.56901 30.2576-17.53198 5.8132-4.05957 12.6997-14.91782 12.71027-20.04088.004-2.0517-4.73268-8.74264-10.52652-14.86875l-10.53423-11.1384 11.55119 6.25639c12.16865 6.59083 17.76179 12.57094 17.76179 18.99069 0 7.87373-7.12586 18.46581-17.89084 26.59344-6.09083 4.59864-10.72477 8.71063-10.29765 9.13777.42716.42714 5.40248-.29116 11.05629-1.59622 12.37656-2.85685 25.90275.80084 39.24416 10.61222 13.12309 9.65083 15.7673 17.40398 14.3419 42.05237-1.43892 24.88277-6.80649 43.53651-19.01789 66.09225-9.32031 17.21559-24.57743 61.35784-31.87112 92.2102-6.82146 28.855-8.40869 65.18181-6.14738 140.69755 1.1202 37.40952 3.01628 80.07492 4.21347 94.81201 2.85439 35.13683 1.25199 49.44283-6.3946 57.0894l-5.77506 5.77508-38.80476-.13016-38.80473-.13014zm-682.236595-8.0885c6.709205-3.59065 10.724285-15.48626 11.869635-35.16649 1.00954-17.34695.81223-18.28188-11.657725-55.23702-6.976551-20.67529-14.068425-44.73381-15.759719-53.4634-5.046926-26.04966-7.716046-78.45401-6.267366-123.05077 2.873191-88.44952 9.894783-120.60337 47.32514-216.71505 27.9054-71.65403 28.87378-79.27947 11.0928-87.35036-17.19316-7.804079-59.945671-2.75157-78.040204 9.22283-8.761792 5.79828-16.271835 19.80868-16.271835 30.356 0 6.13293 1.693162 8.89548 10.502172 17.13528l10.502171 9.82355 12.725711-1.0215c14.164947-1.13702 31.686565-8.85953 39.686315-17.49141 7.31037-7.88801 6.72484-18.07416-1.27679-22.21197-7.76924-4.01762-7.78693-5.15282-.0803-5.15282 6.81765 0 14.5082 6.80496 14.5082 12.83754 0 6.08949-7.51922 19.16381-14.30538 24.87398-8.32466 7.00474-27.295559 13.97303-41.726814 15.32688-10.105523.94803-12.994806.35097-20.997869-4.33913-5.103988-2.99114-9.694302-4.73765-10.200698-3.88113-.986701 1.6689 3.258984 76.20107 6.663738 116.9806 6.524381 78.14406 4.244149 181.74835-6.79432 308.70561-5.711808 65.6935-5.109365 73.12757 4.923223 60.75205 3.203144-3.95119 5.692427-4.62213 16.819428-4.53344 8.225488.0656 15.539521 1.42035 19.758542 3.65991 8.131422 4.31634 8.10397 4.47556 3.66946-21.28363-6.428704-37.34307-13.798367-116.45942-10.54365-113.19042.470276.47235 1.918564 10.59765 3.218416 22.50068 2.519001 23.06702 15.516387 103.88774 18.438309 114.6536 2.97292 10.95378.21812 11.85018-14.808163 4.81853-15.900522-7.44074-27.144251-7.70213-31.741837-.7379-2.50365 3.79244-2.40302 4.90584.795676 8.80374 6.413284 7.81515 36.431137 10.55308 47.973734 4.37566zM345.90955 146.03993c-5.31031-6.39853-6.64877-14.32812-4.45788-26.41016 1.84151-10.15537 1.64738-13.10377-1.22909-18.66625-2.42471-4.688878-3.07953-9.447241-2.25646-16.396866l1.15958-9.790956-9.67592-2.053078c-5.32176-1.129193-16.42098-2.708142-24.66487-3.508775-14.53271-1.411389-23.10776-5.128063-11.41214-4.946351 10.93924.16996 54.37121 5.551277 55.72429 6.904364.7446.744596.24841 4.410754-1.10264 8.147018-3.14981 8.710683-3.14223 18.387654.0169 21.546784 3.99373 3.99373 4.99457 2.91167 4.13301-4.468346-.75008-6.424933 3.47157-18.195124 7.39606-20.62058.91571-.565946 9.96551.848815 20.11066 3.143913 10.14516 2.295097 28.17741 5.278647 40.07166 6.630108 18.85483 2.142345 21.71963 2.977256 22.35722 6.515757 1.22669 6.807867 4.04133 8.162088 8.52699 4.102627 6.01238-5.441119 5.4662-11.380293-1.04654-11.380293-7.80758 0-8.93277-5.892662-2.22667-11.661017 6.6289-5.701939 11.64956-6.491424 6.73306-1.058754-5.15686 5.698263-4.34631 10.65864 1.74168 10.65864 7.27342 0 6.695 5.902124-1.65071 16.844097-8.60963 11.287978-12.15992 11.382158-14.33565.380283-1.98762-10.050801-4.1188-10.971868-25.48154-11.012844-8.07028-.01548-22.74162-1.435157-32.603-3.154838-2.08936-.364354-4.13704-.69069-6.07696-.972552-7.21611-1.048472-12.94111-1.481554-13.77378-.966937-1.05652.652962-1.9148 6.929395-1.9073 13.947629.007 7.018237-1.07182 20.180497-2.39845 29.249467-2.97571 20.34224-6.20005 25.5906-11.67151 18.99791zm448.83947-19.29253c-7.30508-7.46858-17.17678-15.34962-21.93712-17.51341-4.76035-2.1638-10.63039-6.70812-13.04457-10.098497-4.81985-6.768878-15.40015-13.166005-18.55283-11.217542-1.10034.680041-2.09003 5.123612-2.19936 9.874602-.1093 4.750987-1.26868 13.739457-2.57641 19.974377-1.95255 9.30941-3.20681 11.45398-7.0152 11.99486-5.13769.72967-5.39163-.0709-4.69667-14.80673.46065-9.76754-4.50259-25.259633-9.15907-28.588804-4.66987-3.338741-38.12183-1.636794-50.01936 2.544851-12.33391 4.335019-31.88177 5.424186-40.24985 2.242642-6.97116-2.650423-9.89799-.05717-12.78984 11.332071-2.92784 11.53105-6.37843 13.76781-9.31678 6.03938-2.76938-7.28404-2.61661-11.369571.42519-11.369571 1.37442 0 4.38883-2.359201 6.69868-5.242671 4.02493-5.024519 5.27175-5.274676 29.9638-6.011817 14.17027-.423031 31.3292-2.204579 38.13092-3.958997 13.16329-3.395297 27.32265-4.158608 37.90001-2.043136 4.83207.966414 6.7527 2.660513 7.59435 6.698673 2.16509 10.387515 9.1256 17.349249 9.1256 9.127194 0-7.216023 5.93614-12.99716 13.34566-12.99716 9.18574 0 13.44904 1.804998 13.44904 5.694075 0 4.96499 10.08628 16.97836 14.25485 16.97836 2.05666 0 6.07824 1.83973 8.93682 4.0883 6.7899 5.34093 27.07512 28.77717 25.9135 29.93879-.49467.49468-6.87628-5.21125-14.18136-12.67984zm84.1627-11.52646c-9.88826-5.84115-17.64796-10.95098-17.24376-11.35518.87231-.87232 36.25299 19.81255 36.25299 21.19487 0 1.41413.33896 1.58958-19.00923-9.83969zM603.1575 75.540006c5.08293-6.124549.93025-9.301335-12.15867-9.301335-6.7704 0-12.88306-.927509-13.58368-2.061131-.79859-1.29213 3.65086-2.06113 11.92571-2.06113 10.16986 0 13.98247.865152 16.61066 3.769273 4.30915 4.761546 4.37605 9.847338.15088 11.468688-5.03431 1.931851-5.709 1.516176-2.9449-1.814365zm-92.72909-4.894625c1.70043-1.069544 14.68556-2.458995 28.85582-3.08767 16.48168-.731221 22.79374-.508817 17.51962.6173-12.93655 2.76217-49.97628 4.735237-46.37544 2.47037z"/>
    </g>
    <g fill="#8b4513" transform="matrix(.16395189 -.00287405 .00285026 .16788889 449.29079 190.94378)">
      <path d="m346.725 131.376-3.377 4.501-2.25 2.251-4.501 2.475-.676 2.026s-1.801 1.801-1.575 2.927c.226 1.126.226 3.151.226 3.151s-3.151 2.926-4.502 3.826c-1.351.9-3.152 2.926-3.152 2.926s-1.125 1.351-1.8 1.801c-.675.449-1.8 1.8-2.701 3.151-.901 1.351-1.801 2.25-2.251 2.925-.45.675-1.801 2.251-2.476 4.727-.675 2.477-2.476 5.402-2.476 5.402l-.451 1.125c.226 3.827.225 4.502.676 5.853.45 1.35.901.899.45 3.826-.45 2.925-.45 4.051-.9 5.402-.45 1.349-1.801 3.825-2.25 4.952-.451 1.125.9 3.15.9 3.15s.676 2.927.225 3.602c-.45.676.225 2.026.225 2.026s2.701 1.575 3.602 2.476c.9.9 2.476 2.251 2.701 2.926.226.676 2.026 3.827 2.251 4.502.225.675 2.026 3.15 2.476 3.826.45.676 2.701 3.152 2.701 3.152s2.926 2.249 3.602 3.15c.675.9 2.701 1.35 3.375 2.025.676.675 2.251.449 3.151 1.126.901.675 2.701-.451 3.602 0 .9.45 3.377-.45 4.052-.9.675-.45 2.25-2.025 3.376-1.351 1.125.674 1.8 0 2.701.225.899.225 2.25-.899 3.15-.899.901 0 3.151-.901 3.826-.901.676 0 2.927-1.352 3.828-1.352.899 0 2.025-.898 3.15-.449s.675-.899 2.701-.225 2.701 0 3.376.674c.676.676 1.577.002 2.252.902.675.899 1.8 1.574 2.025 2.475.224.901 1.575 1.802 1.575 1.802l1.351.224s1.802-1.35 2.251-.449c.45.9 2.476.676 2.476.676l2.025 2.25.676.9s1.351 3.602 1.125 4.952c-.225 1.35-.225 4.276-.9 4.951-.675.676-1.125 3.602-1.125 3.602s-.901.9 1.125 2.701c2.026 1.802 3.377 3.376 4.052 4.275.676.901 2.477 3.378 2.7 4.953.226 1.575.676 2.475 1.577 4.501.9 2.026 2.025 2.251 2.25 4.503.226 2.25.675 2.251.45 3.825-.225 1.576-.9 1.801-.225 2.926.675 1.126 1.574 3.152 1.351 3.827-.225.675-.676 3.601-.676 3.601l-.45 1.351-2.025 3.828-1.351 2.024c-.45 1.575-1.35 3.151-1.125 5.402.224 2.251-1.125 2.25.675 4.5 1.801 2.252 2.7 4.728 3.826 6.754 1.126 2.025 1.801 4.051 2.025 5.401.226 1.351 1.126 1.802 1.576 3.602.449 1.801.675 2.7.675 3.826 0 1.125-.226 4.052.226 4.727.449.675.675 2.702.9 3.602.225.901-.676 1.126.675 2.702 1.351 1.575 2.251 2.475 3.151 3.601.9 1.126.675.675 1.351 2.251.675 1.575 1.575 2.477 1.801 3.826.225 1.35.449 4.726 1.125 6.302.675 1.576 1.575 3.152 1.575 3.152s2.477 1.575 3.377 1.35c.899-.225 2.701-2.249 4.052-1.575 1.351.675 2.476 0 3.601 0s2.251-1.351 3.377-1.351c1.125 0 2.7-1.801 3.602-1.35.9.449 2.024-.452 3.15-1.577 1.126-1.124 1.801-2.024 3.826-3.825 2.026-1.801 1.801-1.802 3.151-2.927 1.351-1.126 2.702-3.602 4.277-4.052 1.575-.45 2.025-2.024 2.475-3.15.451-1.126.675-1.801 1.351-2.702.676-.899.225.228 1.351-2.7 1.126-2.927 2.478-4.051 3.603-4.727 1.125-.675 1.8-2.025 2.475-2.251.675-.226 1.801.675 1.351-1.351-.449-2.025 0-4.951-.449-5.626-.451-.677-1.127 1.574-.901-1.803.227-3.375 2.701-6.752 2.701-6.752s3.376-4.276 4.502-4.951c1.126-.675 1.35-1.35 2.927-2.251 1.574-.899 4.951-3.15 4.951-4.276s1.351-4.052 1.351-4.728c0-.675 0-1.35-.449-5.177-.451-3.825.449-2.926-.901-6.527s-1.577-8.103-2.476-9.228c-.901-1.126-.451-4.053-.451-4.952 0-.9 1.577-3.151 2.252-4.051.675-.901 3.601-4.503 3.601-4.503s4.501-5.176 6.077-7.651c1.576-2.477 3.151-4.727 4.276-5.627 1.126-.9 3.827-2.928 5.402-5.178 1.576-2.25 4.727-6.526 4.953-7.203.224-.674 2.024-2.925 2.024-2.925s2.476-2.927 2.927-4.502c.449-1.576 2.699-10.354 2.249-9.904-.448.451-3.15.9-4.051 1.125-.899.226 1.352 1.125-5.177.676-6.526-.451-9.902.675-9.902.675-2.027-.451-3.602 1.8-4.278-1.351-.675-3.15-1.126-4.951-2.475-7.202-1.351-2.251-2.252-3.151-4.276-6.078-2.025-2.925-1.802-1.576-3.603-3.825-1.8-2.251-2.251-1.577-3.376-4.502-1.125-2.926-2.025-1.8-3.376-5.852-1.351-4.053-2.251-4.503-2.926-6.753-.676-2.25-1.575-2.927-2.026-4.952-.45-2.026-5.626-12.379-6.302-13.055-.676-.674-1.801-4.277-1.576-3.601.226.675 3.377 2.926 3.377 2.926s1.8-.676 2.476-.676c.675 0 3.376 2.477 3.376 3.376 0 .901 4.729 5.178 5.853 8.329 1.125 3.151 2.478 5.402 2.701 6.302.223.9 2.476 4.502 3.377 5.853.899 1.351 3.825 4.051 4.275 5.402.45 1.351 4.728 5.852 4.728 8.778s2.024 6.752 2.25 7.652c.226.9 4.276 2.027 4.276 2.027l5.403-1.351s8.102-5.178 9.003-5.178c.899 0 8.104-3.376 8.104-3.376s2.925-2.7 4.95-4.275c2.026-1.576 4.277-4.501 4.728-5.853.449-1.351 1.35-1.575 3.15-3.602 1.801-2.026 4.277-4.051 2.702-5.402-1.576-1.35-2.477-.9-4.727-3.151-2.251-2.25-2.026-1.8-3.602-4.727-1.576-2.925.225-6.302-3.152-2.925-3.375 3.376-2.025 4.276-5.402 4.953-3.375.674-4.727 2.925-6.302.674-1.575-2.251-3.15-.9-4.052-4.277-.9-3.376-1.576-3.602-1.8-4.951-.224-1.351 0-1.351-1.801-4.728-1.8-3.376-.45-8.553.675-5.627 1.126 2.926 2.926 3.376 5.853 5.402 2.925 2.025 4.277 3.602 6.977 3.827 2.701.224 4.952 0 5.402.449.45.451.9-.224 2.026.225 1.126.451 1.574-.674 2.025 1.125.45 1.801 2.926 2.026 4.051 3.151 1.126 1.125 1.126.676 4.053 1.125 2.927.451 6.979.451 6.979.451l4.275-.226 4.952.449s3.603 2.026 4.502 2.026c.9 0 1.125 2.477 3.376 3.827 2.251 1.351 2.701 1.575 4.051 3.151 1.353 1.576 1.126 2.251 2.926 3.826 1.802 1.577 4.729-.224 5.179-.898.448-.676 2.699-1.801 2.251 0-.451 1.8 2.249 1.124 1.574 5.402-.675 4.275-1.126 3.15 0 6.077 1.125 2.926 6.077 11.929 6.303 14.63.226 2.701 1.575 1.801 1.8 4.278.226 2.475 1.575 3.375 1.575 5.176 0 1.801 1.577 2.25 1.801 3.602.227 1.351 2.702.224 3.377 0 .676-.226 3.826-3.152 3.826-3.152s1.353-.449 1.126-2.701c-.226-2.249 0-1.8 0-5.176 0-3.376-1.35-3.376-.675-6.751.675-3.376 2.475-5.403 2.926-6.978.45-1.575 2.251-4.276 3.15-4.502.9-.225 5.853-2.7 6.979-4.277 1.125-1.575 2.926-3.376 4.727-5.176 1.8-1.8 4.951-4.051 5.627-3.376.675.675.45.45 1.576.45 1.125 0 3.151.901 4.726 1.126 1.576.225 4.728 4.051 5.403 6.077.675 2.026.225 1.575 2.701 4.502 2.476 2.925 4.727 1.124 4.727 4.726s0 3.376 1.126 4.727c1.125 1.351 2.475-2.476 3.825-2.025 1.35.451 1.575-.45 2.7 3.151 1.125 3.602 1.8 3.602 2.027 7.203.224 3.601-.226.225-.226 3.15 0 2.927-.226 3.152.226 5.852.449 2.703 2.023 3.603 1.8 4.053 0 0 1.35-3.826.899-6.528-.448-2.7 0-6.526 1.126-7.651 1.125-1.127 2.252-2.251 3.151.675.901 2.925 1.351.675 3.376 4.051 2.027 3.377 3.827 2.7 4.052 4.276.225 1.576 1.353 1.802 2.926 3.151 1.576 1.351 2.926-.224 4.727-1.575 1.802-1.351 6.752-6.303 6.979-8.329.224-2.025 2.25-1.576-1.352-6.751-3.602-5.177-3.602-6.978-7.428-10.129-3.824-3.151-6.076-3.376-3.149-7.428 2.926-4.052 4.277-6.752 6.077-5.626 1.801 1.125 4.95.899 4.95 5.402 0 4.501-.9 9.453 2.251 4.051 3.151-5.402 4.728-8.553 3.826-7.651-.899.9 2.026-1.801 2.026-1.801s.226-2.026 4.053-2.926c3.825-.902 4.95-1.351 6.302-2.026 1.35-.676 5.177-5.178 5.852-7.203.675-2.026 2.476-5.627 2.026-7.202-.45-1.577-2.702-9.228-3.152-9.004-.449.226-.224.226-3.149-2.925-2.928-3.151-4.953-5.402-5.403-6.753-.45-1.351-1.576-1.576-.226-3.376 1.352-1.8 2.027-1.575 2.252-3.151.224-1.575 2.024-2.926-1.352-1.8-3.375 1.125-.9.451-3.826.226-2.926-.226-10.578 1.575-6.751-3.151 3.825-4.727 4.949-7.652 5.625-7.652.677 0 4.053-3.827 4.277-.226.226 3.601 1.575 2.7 1.801 4.951.226 2.251 4.727-2.475 4.727-2.475s1.575.45 2.7 1.575c1.126 1.125 1.126 4.727 1.126 4.727s-.9-1.126 1.576.675c2.477 1.802 5.176.9 5.176 4.727 0 3.826 0 4.052 1.576 4.952 1.577.9 3.15.451 4.503-.675 1.35-1.125 3.6-5.177 3.6-5.177s.225-1.576-3.376-3.827c-3.601-2.25-5.852-3.825-7.201-4.951-1.352-1.125-.901-4.501.448-5.853 1.353-1.351 2.026-2.026 1.576-3.826-.451-1.802.676-3.152 4.052-2.927 3.376.226 4.051-.224 4.051-.224s.677.449.677-.901 4.275-7.653 3.149-7.653c-1.125 0 .228-1.575-.45-4.051-.675-2.477 2.251-6.302-.224-8.103-2.476-1.801-3.152-2.702-4.727-5.402-1.575-2.702-1.352-3.151-7.203-3.827-5.852-.675-8.553 1.351-9.904-.449-1.351-1.801-2.025 2.7-2.925-2.702-.9-5.402 1.351-9.004 1.351-9.004s3.601-2.25 4.5-3.826c.9-1.576 4.501-2.251 7.43-1.125 2.926 1.125 7.201.9 10.804 1.577 3.601.674 3.376 2.925 5.177 0 1.8-2.928 0-4.277 1.35-5.853 1.352-1.576 2.926-4.052 4.051-2.477 1.125 1.577 3.379 3.151 5.18 1.125 1.8-2.025 2.475-2.25 2.475-2.25l.898.901s2.026-1.127 2.026.898c0 2.027 2.027 4.278.901 5.853-1.127 1.577-2.7 1.351-2.7 5.177 0 3.828 0 3.152 2.474 6.304 2.477 3.15 4.052.449 4.502 3.826.451 3.376.899 2.702 3.377 4.952 2.476 2.25 2.024 2.25 3.826 3.601 1.801 1.351 2.702 2.702 2.702.451s.225-3.376 0-5.402c-.227-2.025 1.801-3.602.448-6.978-1.35-3.376-.224-3.151-2.925-5.627-2.702-2.475-4.503.451-5.401-3.151-.901-3.601 4.275-5.177 5.627-5.627 1.35-.449 3.374-3.151 3.824-1.35.451 1.8-3.375 8.328 3.153 1.35 6.526-6.977 3.601-4.051 3.601-4.051s3.376-.45 4.051 0c.674.451 2.478-2.026 1.8-1.8-.675.226-7.2-3.602-7.2-3.602l-4.729-2.7s1.577-1.126 2.702-.9c1.126.225 1.352-2.251 2.478-2.477 1.125-.225 8.777 1.577 10.354 2.477 1.575.9 7.201 1.125 6.525.675-.675-.451-4.275-3.151-4.501-4.052-.224-.9-8.103-2.701-10.578-2.476-2.477.224-4.726.899-6.752.224-2.027-.675-4.952-2.476-6.528-2.476-1.575 0-21.382-3.826-22.282-3.601-.9.225-2.252 4.501-2.927 3.826-.675-.675-1.8-.676-4.953-1.576-3.149-.9-7.427-1.576-13.055-2.025-5.626-.45-9.451.45-11.027-1.351-1.576-1.8-4.951-1.125-8.778-1.351-3.826-.224-8.328 0-10.354 0s-6.751-.224-7.877-.45c-1.126-.226-2.476-1.801-3.826-2.025-1.352-.226-1.127-.675-3.827-1.125-2.701-.451-2.476-3.376-3.376-.901-.9 2.477-.451 1.801-1.801 2.701-1.351.901-2.701 2.701-3.602 2.701-.899 0-4.5.225-5.177-.225-.676-.45-1.801-.9-4.052-.9-2.251 0-2.251.224-5.177-.226-2.926-.45-5.177-.226-7.878-1.575-2.701-1.351-2.701-2.251-4.952-2.026-2.249.226-2.249-.45-5.402-.45-3.15 0-6.976 1.801-9.003 2.026-2.024.225-6.526-.226-8.102-.901-1.577-.675-2.026-2.25-7.879-1.576-5.852.676-9.228.676-8.103-1.125 1.126-1.8 2.476-3.601 3.151-3.826.676-.225 2.25-1.35 1.124-1.8-1.124-.451-2.25-1.125-4.95-1.351-2.702-.225-2.478.9-6.528.45-4.051-.45 2.251-1.575-6.076-1.35-8.328.226-10.354.9-11.254.9-.901 0-2.027-1.8-4.277.9-2.251 2.701-5.404 4.276-9.904 4.501-4.501.226-4.727-.45-9.002 1.125-4.277 1.575-6.979-.45-6.078 3.151.899 3.601 2.026 4.952 2.026 5.627 0 .675-2.026 5.177-4.501 2.476-2.478-2.701-6.979-13.28-4.953-6.077 2.025 7.202 6.526 9.679 2.251 10.804-4.276 1.125-3.828-.45-4.503-.901-.674-.45 0-3.601-.225-5.402-.226-1.8-.675-2.926-1.575-3.826-.899-.901-.676-2.251-2.476-2.701-1.801-.45-.225-1.351-3.151-1.351-2.926 0-5.401-1.801-4.726 2.251.674 4.051 1.349 1.351 3.149 5.177 1.8 3.826 5.177 1.125 2.702 3.826-2.476 2.701-9.003 1.801-10.579.676-1.576-1.126-1.125.45-4.053-1.576-2.926-2.026-2.024-3.602-5.4-2.026-3.376 1.576-4.502 4.502-5.853 3.376s-4.501 1.575-5.627.226c-1.126-1.351-5.628-1.351-6.527 0-.901 1.35-3.602 1.125-7.428 2.926-3.826 1.8-2.702.224-7.428 4.051-4.728 3.826-7.429 6.977-9.003 4.501-1.576-2.475-10.13-6.752-6.753-7.428 3.377-.675 4.952-2.025 6.753-.45 1.801 1.575 4.728 1.126 5.176 0 .45-1.126 2.477-2.251-.225-3.601-2.701-1.351-2.926-.451-7.202-2.026-4.277-1.576 0-1.125-5.853-2.026-5.852-.9-8.329-1.35-9.904-1.8-1.574-.45-3.826 0-6.076-.225-2.252-.225-3.826-.675-5.853-.45-2.025.225-3.15-.225-5.852 1.801-2.702 2.026-4.728 2.926-6.528 4.501-1.8 1.575-6.526 4.727-7.877 5.853-1.351 1.125-6.078 4.726-6.528 6.077-.45 1.351.45 2.476-1.351 3.376-1.801.9-3.601.9-4.952 1.125-1.351.225 0-2.026-1.351.225-1.35 2.251-.9 10.354.225 9.228 1.125-1.126.45-4.726 5.402-1.349 4.952 3.375 8.104 2.925 7.878 6.076-.225 3.151 3.376 2.926 3.826 3.602.45.674 2.701-.901 2.701-.901s4.952-3.151 4.952-4.726c0-1.576 3.151-5.177 3.151-5.177s-2.252-1.125-2.252-3.376c0-2.25.677-2.927 1.126-5.178.45-2.25-2.476.001 4.277-4.277 6.751-4.276 7.202-1.349 7.202-1.349s.899.9-.226 2.25c-1.125 1.351-3.151 4.953-3.601 5.402-.451.451 2.026 4.052 3.15 4.052 1.126 0 3.377-.901 4.728-.676 1.351.226 3.601-.674 4.276-.224.676.45 2.251 1.8 1.125 2.926-1.125 1.125-3.602 2.475-5.401 2.026-1.802-.449-4.503-3.602-2.927.9s-.225 5.627-1.576 5.402c-1.349-.225-4.276-2.475-3.826.901.451 3.375-2.925 5.626-3.601 5.626-.676 0-2.025-.225-2.025-.225s-2.027-.226-3.151-.226c-1.126 0-3.377 1.125-4.052 2.026-.676.9-1.576.226-2.701.226s0-1.351-2.251-1.801c-2.25-.45-3.601-.9-4.951 0-1.351.9-3.376 1.35-4.277.675-.9-.675.451-2.252-1.351-1.35-1.8.9-3.151 3.376-3.826 3.602-.675.224 2.026 0-.675.224-2.701.226-3.826.902-5.177 1.351-1.351.451.45 3.151-2.026 4.051-2.476.9-.674-1.125-3.151.9-2.476 2.027-2.927 3.827-3.826 4.052-.901.226-.675.675-2.701.9-2.026.225-1.8.45-2.927.675-1.125.225.226.676-2.25.225-2.477-.45-4.277.451-3.827 1.351.45.9 8.778 3.376 2.476 3.151-6.302-.225-4.276.9-2.926 1.8 1.351.9 2.025 1.8 2.701 2.026.676.225 1.8 2.927 1.8 2.927s1.801-.226.676 1.35.45 2.026-.676 4.052c-1.125 2.026-1.125.675-2.025 1.125-.9.449-2.251 2.026-4.728.675-2.476-1.351-4.275-2.026-7.202-2.25-2.926-.226-.901-.675-2.926.899-2.026 1.577-2.476 3.377-2.25 5.402.225 2.025.45 4.727-.226 6.078-.675 1.35-.675 2.701-.226 4.727.451 2.025 1.802 2.927 1.802 2.927s3.151.449 3.826.675c.675.225 2.026-.45 3.826.674 1.801 1.126 3.602 1.577 4.727.226 1.125-1.35 5.627-2.926 6.979-4.276 1.35-1.351 2.25-1.8 1.575-3.151-.675-1.351 1.351-4.727 2.476-5.402 1.125-.675 3.601-1.351 3.601-1.351l2.701-4.051s2.251-2.477 3.376-2.251c1.125.225 7.427 2.477 6.978-.449-.45-2.927.45-3.827 1.125-2.702s2.476.675 2.476.675.9-.449 1.575.226c.675.674 1.575 3.602 2.926 4.276 1.351.676 2.476 1.351 3.377 1.8.9.451 1.801 0 3.602 1.576 1.8 1.576 3.601 2.477 3.825 3.151.227.675 1.802 2.251 1.802 2.251s1.575.45 1.125 1.351c-.45.9-2.7 3.602-3.826 4.051-1.126.45-4.051-.451-2.926.45 1.124.9 2.701 2.026 3.376 1.35.676-.675 4.951-5.177 4.951-5.177s-.225.225 0-1.126c.226-1.349 0-2.925 1.126-2.25 1.125.676 1.801 1.576 2.251.676.45-.901.9-.45-.226-1.125-1.126-.676-3.826-4.502-5.177-4.727-1.351-.226-4.728-2.477-4.728-2.477s-.674-.675-2.25-2.475c-1.576-1.801-2.025-1.351-2.477-2.927-.449-1.575-1.801-3.601.676-3.151 2.477.45 4.051 2.025 6.302 3.376 2.251 1.351 1.802 1.8 3.827 3.151 2.025 1.351 2.252 2.702 3.826 2.477 1.575-.225 3.377.9 3.377 2.926 0 2.026.449 4.276.899 4.727.451.451 1.8 1.351 2.251 2.251.45.9 1.351 3.151 2.025 4.051.676.9 1.351 1.576 2.026 2.702.675 1.125.9-.226 1.575.225.676.45 1.576.224 1.576-.676s.224-2.476.224-2.476 3.153-.9 2.253-1.351c-.901-.45-3.603-3.151-3.377-4.051.225-.9 0-2.7 1.124-2.475 1.126.224 2.252 2.25 4.728.449s5.402-2.701 4.501 0c-.899 2.701.227 3.15 0 6.077-.224 2.927.902 2.026 2.478 3.602 1.575 1.576 2.7 1.802 3.825 2.251 1.126.451 2.926.226 4.728.451 1.801.225 2.926-.676 4.502-.225 1.574.45 5.176-.226 5.852.225.676.45 3.377-.9 3.601.675.225 1.576 1.126-.225.451 3.376-.675 3.601-1.576 6.077-1.576 6.077-2.476 4.727-3.376 5.853-4.502 6.078-1.124.225-1.8.9-3.825.675-2.026-.226-4.502 0-7.428-.675-2.926-.676-8.329.675-10.579-.676-2.251-1.35-5.402-.225-6.754-1.8-1.35-1.576-3.6-1.351-4.501-2.251-.9-.9-1.35-3.375-1.35.226 0 3.602-2.026 3.826-2.476 5.627-.451 1.8.674.9-1.802.675-2.476-.226-3.151 1.125-6.752-1.575-3.602-2.701-5.402-2.701-7.202-3.827-1.802-1.126-3.602 2.025-5.402-1.575-1.801-3.602-4.277-.676-4.502-3.602-.225-2.927 0-2.7.225-4.501.227-1.801 2.701-3.376 1.576-4.051-1.126-.675-.226-1.801-1.801-1.125-1.576.675-3.826.9-5.627 1.575-1.801.676 4.051 0-4.727.676-8.778.675-11.255 1.575-11.255 1.575s-.675-.45-1.801.45c-1.125.9-2.701 2.251-4.276 1.576-1.575-.676-2.476-.451-3.826-.225-1.351.225-2.25-1.125-3.826 0-1.576 1.124-3.376 1.575-4.052 1.124-.677-.456-1.803-2.256-1.803-2.256z"/>
      <path d="M497.305 279.479c-.675 2.477-3.151 6.077-3.151 6.077l-4.503 2.251s-1.573 1.351-2.475 1.576c-.9.224-3.151 1.351-3.151 1.351s-2.025-.451-1.351 1.574c.675 2.026.901 4.503.675 5.177-.224.676-.224 2.027-.224 3.828 0 1.8-.675 4.05-1.801 4.5-1.125.451-2.251.901-2.026 2.477.226 1.576.226 6.302.226 6.302l2.927 4.502s.9-.675 2.701-.675c1.799 0 3.601-1.574 3.601-1.574s2.027.448 1.8-2.026c-.225-2.477.902-5.402.675-6.078-.224-.675 2.027-3.602 2.027-4.276 0-.676 2.251-3.825 2.251-4.952 0-1.125 1.575-2.926 1.8-4.275.225-1.352.45-4.502.9-5.402.451-.9.676-1.801.676-2.701v-2.701zm176.239 30.387c-.675.899-1.125 10.579-1.575 11.704-.45 1.125-1.351 6.978-.899 8.327.449 1.352 1.124 6.303.675 7.879-.451 1.575.225 6.527-.902 6.302-1.124-.226-1.573.226-1.573.9 0 .676 1.573 2.025 1.573 2.025s2.703.001 3.828-.225c1.125-.225 3.376-1.351 5.177-1.351 1.801 0 2.927-1.351 4.501-1.351 1.576 0 4.953-1.124 5.853-.675.9.449 2.25-2.701 3.826-2.025 1.576.675 4.953-1.576 6.528-1.576 1.574 0 2.251-2.477 4.052-2.025 1.8.45 5.177-.9 6.753-.227 1.573.677 4.051-2.25 5.176 0 1.126 2.252 4.503 3.152 4.503 4.277s-.228 3.602-.228 3.602l2.702-.226s4.275-2.701 4.952-2.701c.675 0 2.251-2.25 2.251-1.124 0 1.124-1.352 3.602-1.801 4.726-.45 1.126.449 2.477.449 2.477s2.253 1.125 1.352 3.15c-.901 2.026.224 1.577 0 3.151-.226 1.576 0 .9.898 1.8.902.901 2.479 2.479 3.828 2.252 1.352-.226 1.8-1.575 2.926-.9 1.125.675 3.375.225 4.05 1.126.678.899-4.275 3.15 4.278-.675 8.553-3.828 9.451-4.728 10.577-6.079 1.129-1.35 2.479-2.7 3.377-3.601.901-.9.227-.675 2.926-2.701 2.701-2.025 2.701-1.125 5.179-4.952 2.476-3.825 4.275-5.176 4.727-5.852.45-.676 1.35-.9 1.575-3.603.225-2.7 2.025-5.176 2.025-6.076 0-.899.675-2.249.45-3.826-.225-1.576.901-3.825-.45-6.076-1.351-2.252.675-3.15-1.351-4.053-2.026-.9-3.376-.449-3.826-2.025-.451-1.576-2.252-1.351-2.927-5.627-.675-4.276-3.376-4.728-3.376-4.728s-2.701-1.125-2.026-1.574c.677-.451.901-3.603.677-4.503-.226-.9-.226-2.926-.9-4.275-.675-1.352-1.126-3.151-1.801-4.728-.675-1.575-1.8-2.026-2.251-3.826-.451-1.8-1.126-2.477-1.35-2.926-.227-.45-.678-2.7-1.126-.226-.45 2.476-1.352 7.202-1.352 7.202s-1.801 3.828-2.476 4.953c-.675 1.124-1.35 4.051-2.475 3.825-1.126-.225-1.803 1.127-2.701.9-.901-.226-2.251.226-2.926-.449-.675-.676-2.476-2.476-3.377-2.702-.9-.224-1.575-2.024-2.251-2.024-.677 0-1.801-1.577-1.575-2.477.224-.9.449-2.925.675-3.826.224-.9 1.576-2.927 1.576-2.927s0-1.35-1.126-1.35c-1.125 0-1.351 0-3.827-.226-2.475-.226-3.149-.45-4.052-.45-.898 0 .902-.45-1.575.225-2.475.677-3.601 2.477-5.177 4.053-1.573 1.575-.224 1.124-1.573 1.575-1.353.451-1.126-1.126-2.027 1.351-.901 2.476.451 3.15-.227 3.601-.675.451-5.4-1.575-5.4-1.575s1.125-.226.224-1.351c-.899-1.126-1.8-2.7-3.149-2.025-1.353.675-2.479 1.126-3.377 2.251-.901 1.125-.901 2.025-1.576 2.925-.675.9-2.475.9-2.701 1.801-.225.901-.225 3.151-.899 3.376-.675.226-.9-.898-1.575-1.124-.675-.225-.451-2.026-.9-.9-.45 1.125-.9.899-1.575 2.7-.677 1.801-.901 3.377-1.576 3.602-.675.226 0 .45-2.027 1.576-2.024 1.125-2.475 1.125-5.4 2.476-2.925 1.351-2.25 1.351-4.276 1.575-2.025.226-2.477.901-3.827 1.126-1.352.225-2.25.449-3.602 1.8-1.35 1.351-2.475 1.8-3.375 2.026-.9.226-1.805 1.127-1.805 1.127zm13.279-88.908c-.899 1.352-3.825 5.402-4.95 5.628-1.126.224-2.252 1.351-3.152 1.125-.9-.226-2.926 0-3.601 2.926-.675 2.926-1.801 4.502-2.478 4.276-.675-.225 1.125 4.276-2.7 2.477-3.825-1.801-2.475 1.576-2.926 2.477-.45.899.675 3.376.9 4.276.227.9.9 2.476 1.801 3.825.9 1.351 1.575 2.926 3.151 2.478 1.576-.452 6.526 0 6.526 0s1.803.675 2.927.675c1.125 0 1.351-.45 2.025-.45.674 0 2.025-2.252 1.801-2.476-.225-.227-.899-.901.45-2.252 1.351-1.351 2.926-1.8 3.152-3.376.225-1.575-.45-1.575.225-2.477.675-.9 2.25-.673 1.801-1.575-.451-.9.449-.675-.451-2.477-.899-1.8-2.026-2.476-1.126-4.727.901-2.25 1.803-2.701 1.577-4.051-.226-1.352 1.125-1.801-.451-3.377-1.574-1.574-2.25-2.025-3.376-2.477l-1.125-.448zm44.116 22.509c.902-.225 4.052-2.476 4.278 1.576.225 4.051.448 2.925 1.801 5.176 1.35 2.251 2.248 2.928 3.824 1.802 1.575-1.127 3.376-1.127 3.826-3.151.451-2.026.451-2.026 1.801-2.026 1.353 0 1.801-.225 2.479.677.674.898 1.122-.002 4.05 1.574 2.926 1.576 5.401 1.124 7.204 2.701 1.801 1.575 2.701 1.352 5.176 2.251 2.476.9 1.35-.45 3.601 2.026 2.252 2.475 1.353 3.15 2.476 4.276 1.125 1.125 2.027-.901 1.576 1.8-.451 2.701-3.601 0 1.126 3.825 4.726 3.828 5.402 4.504 6.976 5.628 1.577 1.126 2.702 2.477 1.353 2.477-1.353 0-5.628 0-6.077-.676-.451-.675-2.476-1.126-3.828-2.701-1.349-1.574-4.275-2.701-4.949-4.051-.677-1.352-1.577-1.801-2.702-1.801s-2.25 1.35-3.827 2.926c-1.576 1.575-.898-.899-2.926-.225-2.027.676-4.275-.226-5.402-1.126-1.126-.9-.899-2.25-2.699-1.575-1.803.675-2.926.225-2.251-1.125.675-1.352.224-3.152.224-3.152s.677-2.251-.898-2.7c-1.576-.449-1.576-2.025-3.152-2.477-1.577-.449-4.051-1.575-4.051-1.575s-.225 0-.901-.225c-.675-.226-.675-.226-2.476-.675-1.8-.451-3.152-.002-4.051-1.126-.902-1.125-.451-2.701-.451-2.701s3.601.45 0-2.251l-3.601-2.7s.448-.226.224-.676c-.227-.452 2.247 0 2.247 0zm-101.286-18.683s1.125 1.127 2.926.901c1.8-.226 3.149 3.601 4.277 4.951 1.124 1.351 1.801 2.026 4.276 3.602 2.475 1.575 2.25-1.351 5.627 3.376 3.376 4.726 1.8 1.801 3.376 4.726 1.575 2.929 2.476 4.503 3.376 5.18.899.675 1.576 2.474 1.802 3.15.224.675 1.799 2.7 1.799 3.376 0 .675.451 2.476-.899 4.051-1.351 1.576-2.477 1.801-2.477 1.801s-2.701-1.351-3.601-2.701c-.901-1.35-2.025-2.476-3.602-5.176-1.575-2.702-3.376-5.628-4.276-6.978-.9-1.352-2.251-2.703-2.926-4.052-.675-1.352-2.476-5.402-3.376-5.853-.9-.451-1.126-1.8-2.702-3.376-1.574-1.576-1.35-2.926-2.025-3.826-.675-.9-2.25-2.928-2.25-2.928zM191.868 400.35c-1.576-.9-4.952-2.476-6.077-3.376-1.125-.9-4.501-5.854-4.501-5.854l-2.477-4.727s-2.925-3.601-2.25-4.951c.675-1.351 2.026-2.251 2.026-2.926 0-.675 1.35-2.477.224-3.151-1.125-.676-1.125-.9-1.801-2.926-.675-2.025-.675-3.828-1.575-4.277-.901-.449-1.576-3.376-2.476-3.601-.9-.226-1.801-1.801-1.801-1.801l-1.351-18.232s-.451-8.327-.9-10.129c-.451-1.8.675-5.626-.451-9.003-1.125-3.376.226-7.427-.45-8.778-.675-1.351.45-5.176-.225-8.777-.675-3.601 2.701-8.103 0-9.453-2.701-1.352-.675-3.377-2.926-3.377-2.25 0-3.826-1.126-5.852-2.7-2.026-1.576-5.853-4.503-6.978-5.629-1.125-1.124-4.727-4.051-5.852-4.951-1.125-.9-2.251-4.727-3.151-5.853-.9-1.124-1.35-4.5-2.701-6.526-1.351-2.025-3.151-5.401-3.602-6.077-.45-.675-5.402-6.527-5.402-6.527l.45-3.601s3.376-2.026 2.926-2.701c-.45-.676.226-1.352-1.351-2.701-1.576-1.352-1.351-3.828 0-4.952 1.351-1.127 3.376-4.728 3.376-4.728l3.376-5.626s2.702-2.928 2.702-4.953c0-2.025 3.826-3.375 1.575-5.176-2.251-1.802-1.125-3.377-1.801-4.728-.676-1.35-.225-2.25 1.801-3.601s5.627-6.302 5.627-6.302 2.701-.676 3.376-.676c.675 0 1.801-7.204 3.827-2.477s2.701 2.251 2.026 5.627c-.676 3.376.9 2.702 1.8 1.802.9-.902-.451.675 1.35-3.378 1.8-4.051 1.126-5.401 2.251-4.275 1.125 1.126 1.575 1.351 3.601 2.026 2.025.675 2.701.449 3.375 1.8.675 1.351.451-.45 4.277.226s9.228-1.351 8.553.899c-.675 2.251-2.026-.225 1.125 2.251 3.151 2.477 3.602 2.926 5.402 3.377 1.8.45 3.376.225 6.078 2.926 2.701 2.7 3.376 2.926 4.051 4.275.675 1.352 1.8.451 2.926 1.801 1.125 1.352 2.701 1.352 4.276 1.352 1.575 0 0-1.352 2.476.45 2.477 1.8 4.277 2.024 5.402 5.626 1.125 3.604 3.376 3.377 1.575 6.979-1.8 3.602-5.401 5.177-3.826 4.952 1.575-.226 4.502-1.577 5.402-1.351.9.224 1.35-.675 2.701 0s1.576-.9 1.351.675c-.226 1.576-.226 0-.226 1.576 0 1.575-.45-1.576 2.251-.9 2.701.675 1.125-1.352 4.276 1.575 3.152 2.927 3.152 2.027 4.276 3.602 1.126 1.574 2.251-.899 2.927-.225.676.674 2.701.224 4.727.675 2.026.449.675-1.35 3.827.675 3.15 2.025 6.302 1.35 6.977 3.151.675 1.8 2.477 1.125 3.376 2.251s1.35-.451 2.251 1.126c.9 1.574 3.602 1.124 3.151 2.699-.451 1.577.674.676.224 2.926-.449 2.253-2.026 5.854-3.375 6.753-1.351.901-1.35 2.026-2.251 3.151-.9 1.127-.675-1.125-1.801 2.026-1.125 3.152-.9 3.602-1.8 6.527-.9 2.925-.225 0-.9 2.926s-.225 4.727-.9 8.104c-.675 3.375-.45 3.376-.9 5.852-.45 2.476 1.125-1.124-.901 4.051-2.025 5.178-2.25 4.951-2.925 7.203-.676 2.252.225.45-2.251 1.801-2.476 1.352-1.125.9-4.052 1.801-2.925.9-6.527 1.802-7.652 2.026-1.125.224-5.627 1.575-4.276 4.275 1.351 2.702 1.351 3.152 0 6.529-1.351 3.375-3.376 4.502-3.376 6.076 0 1.575-.901 3.15-1.125 4.276-.226 1.126 2.025-1.126-.675 2.251-2.701 3.376-2.926 2.476-3.827 4.502-.9 2.025 0 .449-.9 2.025-.9 1.575-3.151 2.25-3.151 2.25s.224 1.126-.676.676c-.901-.449-.675.225-4.052-.676-3.376-.9-3.826-3.149-4.276-1.575-.45 1.575.225 2.477 2.251 4.052 2.025 1.576 5.402 2.025 4.501 3.602-.9 1.576-.9 1.576-1.575 2.476-.676.901.9.225-.676.901-1.575.675-2.476 3.602-3.151 3.602-.675 0-1.126 1.125-2.026.675-.9-.451-3.15-2.026-3.601-1.126-.45.899-1.351-1.126-1.126 2.025.226 3.151.676 4.952-.45 5.628-1.125.675-3.827 0-3.827 0l-.45-1.126-1.575.45s-.675 2.701.45 3.151c1.125.45.9.899 2.025 2.25 1.126 1.351.451 3.827.451 3.827s0 .676-1.125 1.801-1.576 2.026-1.801 2.701c-.226.675-1.576 3.602.45 3.376 2.025-.226 3.602-1.351 3.602 2.251 0 3.601.9 2.702-.225 5.177-1.126 2.476-2.026 2.701-2.251 4.951-.224 2.251.226 2.476.676 3.827.45 1.351 1.576.675.45 1.351-1.123.675-4.499.001-4.499.001zm-58.072-183.218-1.575-2.25s-.675-1.352-1.801-1.576c-1.126-.224-3.602-3.151-3.602-3.151s-1.125-.9-1.125-2.475c0-1.576-.901-4.051-.226-6.752.676-2.7.901-6.077.676-6.978-.226-.9 1.125-1.125-.45-2.026-1.576-.9-4.727-1.125-6.753-1.125-2.025 0-4.502.676-4.952.9-.45.225 2.476-6.752 2.926-7.877.45-1.125 2.476-6.078 2.476-6.752 0-.676.675-.901-.675-1.8-1.35-.901-3.601-1.351-4.952-.676-1.35.676-1.125-.9-2.25 1.8-1.125 2.702-2.251 5.628-3.602 6.078-1.35.451-4.051 1.801-4.051 1.801s-3.376-.225-4.502-.45c-1.125-.225-5.852-2.701-6.752-4.276-.9-1.576-1.35-4.953-1.35-6.527 0-1.576 2.475-6.302 2.25-7.428-.225-1.125 2.477-5.627 2.251-6.303-.226-.675.45-2.926 1.125-3.826.675-.9 4.052-2.026 4.952-2.926.9-.901 2.476-2.025 4.051-2.476 1.575-.451 2.927-.9 4.052-.9 1.125 0 4.051-2.476 4.501 0 .451 2.475 2.477 1.575 3.602 1.8 1.125.226 1.351 1.351 3.151-1.575 1.801-2.927 3.601-3.827 3.601-3.152 0 .676 2.926-.224 3.376.451.45.675 1.351-.451 2.926.9 1.576 1.351 3.826 1.576 3.601 2.25-.225.675.9.675.9 1.351 0 .675.901-1.576.901 2.475 0 4.052 1.125 6.528 1.125 6.528s1.575 3.377 2.25 2.701c.675-.675 2.025-2.475 2.025-2.475s2.251-1.351.676-6.078c-1.576-4.726-.45-6.077-.9-7.653-.451-1.576-.451-2.477 2.25-4.502s9.228-6.527 10.804-7.427c1.575-.9 5.176-3.376 5.176-3.376s1.35-.675 1.576-2.476c.225-1.8 4.501-4.952 4.727-5.852.226-.9 3.152-3.15 3.152-3.15s3.15-1.802 2.925-2.926c-.225-1.125 4.052-3.15 4.727-3.15.675 0 4.277 1.124 4.277-.902 0-2.025 0-2.476 2.251-4.276 2.25-1.8 5.176-4.502 6.302-4.502 1.125 0 4.952-2.024 6.527-2.475 1.576-.451 6.528-2.702 2.026 0-4.502 2.7-1.576 1.125-2.476 3.376-.899 2.25-1.576 5.177 2.701 1.8 4.277-3.376 4.051-4.052 5.627-4.276 1.576-.225.45.675 3.826-.451 3.377-1.125 3.602-1.575 3.602-1.575s1.576-1.351.675-2.025c-.9-.676.901-1.576-2.476-.226-3.376 1.351-3.151 1.576-5.402.9-2.25-.675-5.627-.451-3.151-2.702 2.476-2.25 5.627-2.926 3.601-3.826-2.025-.9-7.202.226-7.877.45-.676.225-2.251-.225-3.602 0-1.35.225-.9-1.799 0-2.25.901-.451 3.827-1.802 7.428-2.702 3.601-.9 12.38-1.125 14.405-1.125 2.025 0 4.726.451 6.302-.675 1.575-1.125 4.727-2.925 5.177-3.827.451-.9 2.251-2.25 2.251-2.25s2.025-2.026.9-2.926c-1.125-.9-2.251-2.926-3.151-2.476-.9.45-.224 3.152-2.025.225-1.801-2.925-1.576-3.376-2.476-4.051-.9-.675-1.801-.226-1.125-3.376.675-3.151.45-4.502.45-4.502s.675-2.7 0-2.925c-.676-.226-1.125-.9-2.25-.226-1.126.675-7.428 3.827-8.778 4.502-1.351.675-3.152-2.701-2.477-4.276.676-1.577.225-.676-.675-2.926-.9-2.251-4.501-2.702-5.852-2.702s-4.501-2.026-5.402-.675c-.9 1.35-5.626 5.626-6.528 6.077-.9.451-2.25-3.826-2.925 3.151-.676 6.979 2.476 9.004-1.125 9.454-3.601.45-6.753 2.475-6.753 2.475s-2.925.226-2.925 2.026c0 1.802-1.125 6.077-2.477 6.527-1.35.451-4.727-.224-5.852-1.575s.225-6.302.225-6.302l2.026-2.026s-14.405-2.25-14.181-3.151c.226-.9-4.276-2.475-4.726-3.826-.45-1.351-.676-4.277-.225-5.402.45-1.125 6.527-6.527 9.678-7.652 3.151-1.126 8.553-3.601 10.129-4.052 1.576-.45 4.276-.225 5.177-1.35.9-1.126 1.125-3.151 1.125-3.151s-.45-3.152.45-2.702c.9.451 2.476 1.126 2.701 1.801.226.675.226 2.251 1.801.449 1.576-1.8 3.602-2.476 5.402-3.375 1.801-.901 4.501-.675 6.078-1.575 1.575-.9 4.276-1.801 4.501-4.052.225-2.25-.675-1.575-1.801-1.801-1.125-.224.45.226-3.376 2.026-3.827 1.8-2.701.45-5.402 1.8-2.701 1.351-2.927 1.576-3.151.451-.226-1.126.45-2.926.45-2.926s.226-.226-1.35-.675c-1.576-.45-1.576.225-1.801-1.8-.225-2.026 1.125-4.952-1.125-4.052-2.251.9-4.276-.675-5.852 3.826-1.576 4.501-6.978 9.229-8.329 8.103-1.35-1.125-1.575-1.351-2.701-1.351-1.126 0-2.701-1.35-4.727-1.575-2.026-.225-8.104-.225-9.678 0-1.576.226-3.376-.9-4.728.451-1.35 1.35-3.375 3.151-3.375 3.827 0 .675-2.026-2.477-2.701-2.251-.675.225-2.477-.9-4.501-.9-2.026 0-3.377-1.126-4.051-1.126-.675 0 .674-1.801 0-2.026-.675-.224-15.307-.675-15.307-.675s-4.726-1.8-6.526-1.575c-1.801.225-6.752.449-10.58 1.125-3.827.675-9.454 2.926-11.254 3.151-1.801.226-5.852.226-6.527-.9-.676-1.125.225-.9-.676-1.125-.9-.224-.224-.675-2.25-2.25-2.026-1.576.901-2.926-3.151-2.926-4.051 0-6.527-.226-10.128 0-3.602.225-11.029 2.025-11.929 1.8-.9-.225-8.103 1.126-9.229.451-1.125-.676-6.753 2.475-7.877 2.25-1.125-.225-5.402.226-6.527.901-1.126.676-6.528 2.025-4.727 3.151 1.8 1.125 1.575 2.25 1.8 2.926.226.675-1.8 2.25-1.8 2.25s-.451 0-2.926-.9c-2.476-.901-5.177-1.35-6.303-.675-1.125.675-3.151 2.027-2.701 2.927.451.9 3.601 2.926 4.052 2.25.45-.675 1.576-2.025 2.926-1.8 1.351.226 3.377-.9 1.576 1.351-1.801 2.25-3.377 3.376-4.502 3.602-1.125.224-3.826.449-6.302.675-2.477.226-2.252-.9-4.502 1.351-2.25 2.25-3.151.9-3.601 3.376-.45 2.475-.9 2.475 0 3.151.9.675-1.801.9.225 1.575 2.025.676 4.501 1.351 4.276 2.025-.226.676 2.251-.899.9.9-1.351 1.802-2.25 3.376.45 1.576 2.701-1.8 4.276-.451 6.527-1.576 2.251-1.125 4.502-1.35 5.852-2.25 1.351-.901 2.026-2.25 4.052-2.927 2.026-.675.675.226.9 1.351.225 1.125 0 1.35 1.351.449 1.35-.9 1.35-.224 3.151-1.35 1.8-1.125 3.826-2.251 5.177-1.576 1.35.676 1.8.676 2.701.676.9 0-1.125-.226.9 0 2.026.224-.9-.676 5.852.9 6.753 1.575 8.554.45 9.003 2.926.451 2.476 1.351-.226 2.476 1.35 1.125 1.575 1.801.226 2.476 2.926.675 2.702 0 10.129-.45 11.029-.45.9-.675.9-.45 2.926.225 2.025 2.926 11.705 2.026 12.379-.9.674-2.926.9-2.926.9l-1.125 4.051s-1.8 3.376-3.376 5.177c-1.576 1.8-3.601 4.052-4.727 5.626-1.125 1.576-2.026 4.278-3.601 5.853-1.575 1.575-2.926.9-2.476 4.276.45 3.376 0 6.977.45 9.454.451 2.476 1.576 5.852 2.476 7.203.9 1.35 1.576 1.35 3.151 2.475 1.576 1.125 3.602 2.477 3.376 3.602-.225 1.125.225 8.104.225 8.104s1.351 2.25 1.575 4.726c.226 2.477 1.801 4.952 1.801 4.952l1.351 2.927s.675.226 1.576 2.025c.9 1.801.9 1.801 1.125 2.7.226.902.226.676.226.902 0 .224-.226-3.827-.676-4.953-.45-1.125-.45-2.475-.9-3.826s.225-2.927-1.125-4.952-1.35-2.251-2.025-4.277c-.675-2.025-1.576-4.276-.675-4.727.9-.449 1.575-3.375 3.376 0 1.8 3.376 2.026 2.477 2.251 5.178.224 2.701.9 3.602 1.575 4.726.675 1.125 2.25 4.953 3.151 6.527.9 1.576 0-.9 2.025 2.251 2.026 3.151 2.252 3.826 3.377 6.302 1.125 2.476 1.801 2.476 2.476 4.276.675 1.802.225 1.351-.226 3.376-.45 2.025.45 4.277.45 4.277s3.151 1.125 3.376 1.8c.225.675 3.376 1.8 3.827 2.701.45.901 3.376 2.025 3.376 2.025s2.476 1.576 3.375 2.026c.901.45 3.603.901 3.603.901s1.8.451 2.475.675c.675.225 2.701.225 2.701.225s1.801-1.35 2.476-.9c.675.449 2.251-.901 2.926.224.675 1.126 2.026 1.126 2.701 2.027.675.9 1.35.9 2.476 2.025s2.251.9 3.376 1.8 2.025.9 3.376.9c1.35 0 1.35 0 2.251.226.899.225 1.35-.676 2.25.451.9 1.125 1.575 1.8 2.25 2.925.675 1.125 2.251 1.125 2.476 2.926.225 1.8.675 1.577.675 3.151 0 1.576.9 2.251 1.576 2.702.674.449 3.15 2.699 3.15 2.699l3.376.676 2.701 2.026zM205.935 8.03l13.505-1.688s4.726 0 7.09-1.688c2.363-1.688 0-1.688 7.09-3.038 7.09-1.351 5.065-2.026 8.779-1.351 3.713.676 4.726.676 8.778 1.351 4.051.675 5.064-.337 8.777.675 3.714 1.013 5.402.675 8.441.675h9.453c4.727 0 9.116-2.701 10.804-1.013 1.688 1.688 2.701 1.013 8.441 1.688 5.739.675 8.103-.676 10.466 0 2.364.675 6.416-.337 11.142 0 4.726.337 7.09-.337 8.778-.337 1.688 0 3.375-2.364 5.739-.338s5.402-.675 5.739 2.026c.338 2.701 4.727.675.338 2.701s-3.714 1.688-6.753 4.389c-3.038 2.701 2.026 5.064-4.389 7.428-6.415 2.363-7.428-1.351-9.116 2.701-1.688 4.051 0 5.064-.337 7.09-.338 2.025-1.013 2.363-3.039 4.051-2.025 1.688-2.025 0-6.752 1.013s-8.103 2.026-10.128 2.026c-2.026 0-6.415 1.688-7.766 2.363-1.351.676 2.364 1.688-4.727 3.714-7.09 2.026-8.779 1.689-10.804 4.389-2.026 2.702-1.351 3.04-2.701 4.728-1.351 1.688-5.402 8.441-7.428 6.753-2.025-1.688-3.039-1.351-4.727-3.039-1.688-1.688-2.701-4.051-3.714-5.402s-1.351-4.727-1.688-6.753c-.337-2.026-3.377-6.752 0-6.077 3.376.675 5.402.338 6.415-.337 1.013-.676 2.026-3.039 2.026-3.039s-.337-3.714-1.351-5.74c-1.013-2.026-.337-3.714-2.025-5.739-1.688-2.026-1.688-1.688-4.052-3.714-2.363-2.026-1.688-3.039-5.402-3.376-3.714-.337-4.727-1.351-6.078-1.013-1.35.337-5.739-2.364-1.013-2.701 4.727-.338 9.116.337 9.116.337s6.077-2.701 4.052-3.038c-2.025-.338 3.038-3.377-1.688-2.364-4.727 1.013-10.128 2.364-11.479 2.701-1.35.337-4.727.675-8.103 1.688-3.375 1.013-7.428.676-9.453 3.039-2.026 2.363 0 2.701-2.026 2.363-2.025-.337 1.688-2.363-3.038 0-4.727 2.364-3.376 2.026-5.739 1.351-2.364-.675-4.052-1.688-4.052-1.688s3.04-.338-1.35-.675c-4.389-.337-4.389-.337-6.077-2.364-1.688-2.026-.675-2.026.337-2.701 1.014-.676 1.689-2.027 1.689-2.027z"/>
      <path d="M198.507 23.223c-1.688 1.688-5.74 4.052-4.726 5.065 1.013 1.013 1.688 4.727 3.714 3.714 2.025-1.013-.338-4.389 7.427-1.688 7.766 2.701 7.09-.337 8.778 3.714 1.688 4.051 3.038 7.089 2.025 8.103-1.012 1.013-1.35 2.026-4.727 3.039-3.376 1.013-4.727 2.364-2.363 4.051 2.363 1.688 6.753 3.376 8.778 4.39 2.026 1.012 8.103 1.351 5.064-2.025-3.039-3.376.675-4.39.675-4.39s5.74 4.39 3.715-.675c-2.026-5.064-3.377-5.064-2.026-5.064s4.051 1.688 4.051 1.688l1.351-2.701-1.351-4.389-4.389-4.389s3.713-3.376-1.351-4.051c-5.064-.675-4.727-.675-7.428-2.364-2.701-1.688-3.038-2.363-8.103-1.35-5.064 1.013-6.752 1.688-6.752 1.688zm-75.289 4.052c2.026-2.026 7.428-6.752 9.454-5.402 2.025 1.35 5.063-1.013 7.427 1.013 2.363 2.026 5.064 4.389 7.09 5.064 2.026.675 4.389-1.688 6.415-.675 2.025 1.013 9.115-5.064 7.765-.337-1.351 4.727 1.688 6.077-2.026 6.415-3.714.338-7.765 3.039-9.454 2.026-1.688-1.013-3.039-2.026-5.74-.675-2.701 1.35-1.35 1.35-4.389.675-3.038-.675-3.713.675-4.388-.338-.676-1.012-2.701-.675-2.364-3.714.337-3.038 1.35-2.701-.676-2.701-2.025 0-3.713.338-5.064-.675-1.35-1.013-4.05-.676-4.05-.676z"/>
    </g>
  </g>
</svg>